<?xml version="1.0" encoding="utf-8"?>
<!-- Generator: Adobe Illustrator 26.3.1, SVG Export Plug-In . SVG Version: 6.00 Build 0)  -->
<svg version="1.1" id="rabbit" xmlns="http://www.w3.org/2000/svg" xmlns:xlink="http://www.w3.org/1999/xlink" x="0px" y="0px"
	 viewBox="0 0 250 167" style="enable-background:new 0 0 250 167;" xml:space="preserve">
<style type="text/css">
	.st0{fill:#FFFFFF;}
	.st1{fill:#FF9D00;}
	.st2{fill:none;stroke:#000000;stroke-width:4;stroke-linecap:round;stroke-linejoin:round;}
	.st3{fill:none;stroke:#000000;stroke-width:3;stroke-linecap:round;stroke-linejoin:round;}
	.st4{fill:#FFFFFF;stroke:#000000;stroke-width:4;stroke-linecap:round;stroke-linejoin:round;}
	.st5{fill:none;stroke:#000000;stroke-width:2;stroke-linecap:round;stroke-linejoin:round;}
</style>
<g id="face">
	<path class="st0" d="M109.7,90.7c4.4,5.5,6.2,9.3,7.9,15.8c3.6,14.3-4.4,26.3-11.9,31c-11.1,6.9-32.9,7.5-45.1,5.3
		c-9.3-1.6-20.2-11.9-20.6-23.8c-0.4-11,2.6-18.9,9.6-28.9c-3.4-4.2-6.7-9.2-9.6-14.8c-9.8-18.7-14-35.3-6.6-39.1
		c7.4-3.8,23.7,6.4,33.4,25.2c2.6,4.9,4,8.4,5.5,13l0.3,5.1c0,0,1.4-0.1,1.4-0.1c3.3-0.5,4.3-0.5,7.5-0.4c1-6.1,3-13.1,6.1-20.2
		c8.5-19.3,21.5-32.3,29.2-29c7.6,3.3,7,21.7-1.5,41.1c-2.6,6-5.7,11.4-9,15.9L109.7,90.7L109.7,90.7z"/>
	<path class="st1" d="M42.7,66.1c4.4,9.4,10.9,18.9,15.8,16.4c4.4-2.2,2.9-13.1-2.3-22.1C51,51.6,41.6,44.6,38.2,46.3
		C32.9,49,38.6,57.4,42.7,66.1L42.7,66.1z"/>
	<path class="st1" d="M109.9,63.5c-3.5,9.7-7.8,21.6-13.2,18.6c-4.3-2.4-4.3-13.5-0.8-23.2s14.9-19,18.3-17.8
		C117.7,42.3,113.3,53.7,109.9,63.5L109.9,63.5z"/>
	<path class="st2" d="M45.5,84.4c-1.9-2.8-3.8-5.9-5.5-9.2c-9.8-18.7-15.3-33.3-7.9-37.1c7.4-3.8,25,4.4,34.7,23.2
		c2.2,4.3,3.6,7.5,4.9,11.3c0.2,0.6,0.4,1.1,0.6,1.8"/>
	<path class="st2" d="M110.5,91.7c3.8,5,5.5,8.7,7,14.7c3.6,14.3-4.4,26.3-11.9,31c-11.1,6.9-32.9,7.5-45.1,5.3
		c-9.3-1.6-20.2-11.9-20.6-23.8c-0.4-11,3.5-20.6,10.5-30.6"/>
	<path class="st2" d="M72.5,79.4c0,0,1.4-0.1,1.4-0.1c3.3-0.5,4.3-0.5,7.5-0.4c1-6.1,3-13.1,6.1-20.2C96.1,39.3,112.4,29,119.1,34
		c4,3,4.7,17.4-3.8,36.8c-2.6,6-5.7,11.4-9,15.9"/>
	<circle cx="65.6" cy="105.8" r="2.8"/>
	<circle cx="88.9" cy="105.2" r="2.9"/>
	<path class="st3" d="M71.4,109.2c-1.7,3.3-5.1,5.5-9.1,5.5c-5.5-0.1-10.3-4.6-9.8-10.1c0.4-4.9,5-9.3,10.1-9.9
		c5.5-0.6,9.9,4.6,9.8,10.1"/>
	<path class="st3" d="M82.9,99.4c2.3-3.6,6.8-5.7,11-4.1c5.4,2.1,8.6,8,7,12.3c-1.9,5.2-6.9,8.5-12.3,7s-7.6-6.1-7.3-10.4"/>
	<line class="st3" x1="82.9" y1="104.5" x2="71.8" y2="105.2"/>
	<path class="st3" d="M60.2,126.4c0.3,2.8,12.2,7.5,17.3,1.3c9.3,7.7,14.5,1.5,19.9-1.8"/>
</g>
<path id="hand" class="st4" d="M115.1,137.3c12.8-6.4,20.4-14.6,25.3-20.1c9.8-10.9,11.2-4.8,10.8-1.1c12-9.7,8.7,6.5,3.2,13.1
	s-4.4,7.8-10.9,12.8"/>
<g id="pc">
	<polygon class="st0" points="182.6,21.3 169,61.3 202.7,101.6 208.1,105 225.5,54.7 184.6,15.4 	"/>
	<polygon class="st1" points="188.2,30.8 176.9,61.9 205.1,96 218.8,62.9 190.5,33.2 	"/>
	<polygon class="st0" points="130.1,61 169,61.3 208.1,105 156.1,108 	"/>
	<polyline class="st2" points="208.6,104 225.5,54.7 184.6,15.4 	"/>
	<polyline class="st2" points="182.6,21.3 169,61.3 202.7,101.6 	"/>
	<polyline class="st5" points="186.1,26.2 175.9,57.6 205.3,92.7 217.7,57.2 188.4,28.5 	"/>
	<polyline class="st2" points="129.3,61.3 155.4,107.8 205,107.4 	"/>
	<line class="st2" x1="164.4" y1="61.3" x2="135.7" y2="61.3"/>
	<polyline class="st5" points="192.6,97.1 166.9,66.4 154.8,66.2 	"/>
	<line class="st5" x1="176.6" y1="99.5" x2="194.8" y2="99.8"/>
	<line class="st5" x1="151.8" y1="66.1" x2="174" y2="99.5"/>
	<line class="st5" x1="170.3" y1="70.7" x2="155.9" y2="70.5"/>
	<line class="st5" x1="173.8" y1="74.9" x2="159.5" y2="74.7"/>
	<line class="st5" x1="177.3" y1="79.1" x2="160.7" y2="78.8"/>
	<line class="st5" x1="180.8" y1="83.3" x2="164.2" y2="83"/>
	<line class="st5" x1="185.2" y1="89" x2="167.5" y2="88.6"/>
	<line class="st5" x1="189.6" y1="94.6" x2="170.8" y2="94.2"/>
	<line class="st5" x1="185.3" y1="100.9" x2="161.1" y2="69"/>
</g>
</svg>
